<?xml version="1.0" encoding="iso-8859-1"?>
<!-- Generator: Adobe Illustrator 19.0.0, SVG Export Plug-In . SVG Version: 6.00 Build 0)  -->
<svg version="1.1" id="Capa_1" xmlns="http://www.w3.org/2000/svg" xmlns:xlink="http://www.w3.org/1999/xlink" x="0px" y="0px"
	 viewBox="0 0 480 480" style="enable-background:new 0 0 480 480;" xml:space="preserve">
<g>
	
		<linearGradient id="SVGID_1_" gradientUnits="userSpaceOnUse" x1="-26.875" y1="617.292" x2="-26.875" y2="555.275" gradientTransform="matrix(8 0 0 -8 455 4941)">
		<stop  offset="0" style="stop-color:#FFF33B"/>
		<stop  offset="0.04" style="stop-color:#FEE72E"/>
		<stop  offset="0.117" style="stop-color:#FED51B"/>
		<stop  offset="0.196" style="stop-color:#FDCA10"/>
		<stop  offset="0.281" style="stop-color:#FDC70C"/>
		<stop  offset="0.669" style="stop-color:#F3903F"/>
		<stop  offset="0.888" style="stop-color:#ED683C"/>
		<stop  offset="1" style="stop-color:#E93E3A"/>
	</linearGradient>
	<path style="fill:url(#SVGID_1_);" d="M240,0C107.452,0,0,107.452,0,240s107.452,240,240,240s240-107.452,240-240
		C479.85,107.514,372.486,0.15,240,0z M240,464C116.288,464,16,363.712,16,240S116.288,16,240,16s224,100.288,224,224
		C463.859,363.653,363.653,463.859,240,464z"/>
	
		<linearGradient id="SVGID_2_" gradientUnits="userSpaceOnUse" x1="-26.875" y1="617.292" x2="-26.875" y2="555.275" gradientTransform="matrix(8 0 0 -8 455 4941)">
		<stop  offset="0" style="stop-color:#FFF33B"/>
		<stop  offset="0.04" style="stop-color:#FEE72E"/>
		<stop  offset="0.117" style="stop-color:#FED51B"/>
		<stop  offset="0.196" style="stop-color:#FDCA10"/>
		<stop  offset="0.281" style="stop-color:#FDC70C"/>
		<stop  offset="0.669" style="stop-color:#F3903F"/>
		<stop  offset="0.888" style="stop-color:#ED683C"/>
		<stop  offset="1" style="stop-color:#E93E3A"/>
	</linearGradient>
	<path style="fill:url(#SVGID_2_);" d="M240,24C120.706,24,24,120.706,24,240s96.706,216,216,216s216-96.706,216-216
		C455.868,120.761,359.239,24.132,240,24z M240,440c-110.457,0-200-89.543-200-200S129.543,40,240,40s200,89.543,200,200
		C439.877,350.406,350.406,439.877,240,440z"/>
	
		<linearGradient id="SVGID_3_" gradientUnits="userSpaceOnUse" x1="-26.875" y1="617.292" x2="-26.875" y2="555.275" gradientTransform="matrix(8 0 0 -8 455 4941)">
		<stop  offset="0" style="stop-color:#FFF33B"/>
		<stop  offset="0.04" style="stop-color:#FEE72E"/>
		<stop  offset="0.117" style="stop-color:#FED51B"/>
		<stop  offset="0.196" style="stop-color:#FDCA10"/>
		<stop  offset="0.281" style="stop-color:#FDC70C"/>
		<stop  offset="0.669" style="stop-color:#F3903F"/>
		<stop  offset="0.888" style="stop-color:#ED683C"/>
		<stop  offset="1" style="stop-color:#E93E3A"/>
	</linearGradient>
	<path style="fill:url(#SVGID_3_);" d="M240,96c4.418,0,8-3.582,8-8V56c0-4.418-3.582-8-8-8s-8,3.582-8,8v32
		C232,92.418,235.582,96,240,96z"/>
</g>
<linearGradient id="SVGID_4_" gradientUnits="userSpaceOnUse" x1="-30.87" y1="617.292" x2="-30.87" y2="555.275" gradientTransform="matrix(8 0 0 -8 455 4941)">
	<stop  offset="0" style="stop-color:#FFF33B"/>
	<stop  offset="0.04" style="stop-color:#FEE72E"/>
	<stop  offset="0.117" style="stop-color:#FED51B"/>
	<stop  offset="0.196" style="stop-color:#FDCA10"/>
	<stop  offset="0.281" style="stop-color:#FDC70C"/>
	<stop  offset="0.669" style="stop-color:#F3903F"/>
	<stop  offset="0.888" style="stop-color:#ED683C"/>
	<stop  offset="1" style="stop-color:#E93E3A"/>
</linearGradient>
<path style="fill:url(#SVGID_4_);" d="M204.96,66.16c0.988,0.415,2.048,0.633,3.12,0.64c1.045-0.016,2.077-0.233,3.04-0.64
	c0.954-0.39,1.823-0.96,2.56-1.68c1.502-1.507,2.338-3.553,2.32-5.68c0.013-1.04-0.177-2.073-0.56-3.04
	c-0.364-1.01-0.968-1.916-1.76-2.64c-0.365-0.361-0.768-0.683-1.2-0.96c-0.406-0.32-0.867-0.564-1.36-0.72
	c-0.475-0.247-0.989-0.409-1.52-0.48c-2.611-0.537-5.316,0.274-7.2,2.16c-0.767,0.746-1.366,1.646-1.76,2.64
	c-1.168,3.001-0.48,6.407,1.76,8.72C203.137,65.2,204.006,65.77,204.96,66.16z"/>
<g>
	
		<linearGradient id="SVGID_5_" gradientUnits="userSpaceOnUse" x1="-34.7446" y1="617.292" x2="-34.7446" y2="555.275" gradientTransform="matrix(8 0 0 -8 455 4941)">
		<stop  offset="0" style="stop-color:#FFF33B"/>
		<stop  offset="0.04" style="stop-color:#FEE72E"/>
		<stop  offset="0.117" style="stop-color:#FED51B"/>
		<stop  offset="0.196" style="stop-color:#FDCA10"/>
		<stop  offset="0.281" style="stop-color:#FDC70C"/>
		<stop  offset="0.669" style="stop-color:#F3903F"/>
		<stop  offset="0.888" style="stop-color:#ED683C"/>
		<stop  offset="1" style="stop-color:#E93E3A"/>
	</linearGradient>
	<path style="fill:url(#SVGID_5_);" d="M177.04,75.04c1.067,0.018,2.126-0.172,3.12-0.56c0.973-0.39,1.847-0.991,2.56-1.76
		c3.102-3.12,3.102-8.16,0-11.28c-0.36-0.37-0.766-0.692-1.208-0.96c-0.432-0.298-0.883-0.565-1.352-0.8
		c-0.495-0.174-1.003-0.308-1.52-0.4c-2.61-0.523-5.309,0.287-7.2,2.16c-0.771,0.711-1.372,1.586-1.76,2.56
		c-0.404,0.992-0.621,2.049-0.64,3.12c0.03,2.11,0.893,4.123,2.4,5.6C172.902,74.239,174.932,75.08,177.04,75.04z"/>
	
		<linearGradient id="SVGID_6_" gradientUnits="userSpaceOnUse" x1="-41.665" y1="617.292" x2="-41.665" y2="555.275" gradientTransform="matrix(8 0 0 -8 455 4941)">
		<stop  offset="0" style="stop-color:#FFF33B"/>
		<stop  offset="0.04" style="stop-color:#FEE72E"/>
		<stop  offset="0.117" style="stop-color:#FED51B"/>
		<stop  offset="0.196" style="stop-color:#FDCA10"/>
		<stop  offset="0.281" style="stop-color:#FDC70C"/>
		<stop  offset="0.669" style="stop-color:#F3903F"/>
		<stop  offset="0.888" style="stop-color:#ED683C"/>
		<stop  offset="1" style="stop-color:#E93E3A"/>
	</linearGradient>
	<path style="fill:url(#SVGID_6_);" d="M126.16,92.4c-0.406-0.32-0.867-0.564-1.36-0.72c-0.482-0.231-0.994-0.395-1.52-0.488
		c-4.367-0.853-8.598,1.996-9.451,6.362c-0.096,0.49-0.146,0.987-0.149,1.486c0,4.418,3.582,8,8,8s8-3.582,8-8
		c0.004-2.125-0.829-4.166-2.32-5.68C126.992,93.002,126.59,92.68,126.16,92.4L126.16,92.4z"/>
	
		<linearGradient id="SVGID_7_" gradientUnits="userSpaceOnUse" x1="-44.495" y1="617.292" x2="-44.495" y2="555.275" gradientTransform="matrix(8 0 0 -8 455 4941)">
		<stop  offset="0" style="stop-color:#FFF33B"/>
		<stop  offset="0.04" style="stop-color:#FEE72E"/>
		<stop  offset="0.117" style="stop-color:#FED51B"/>
		<stop  offset="0.196" style="stop-color:#FDCA10"/>
		<stop  offset="0.281" style="stop-color:#FDC70C"/>
		<stop  offset="0.669" style="stop-color:#F3903F"/>
		<stop  offset="0.888" style="stop-color:#ED683C"/>
		<stop  offset="1" style="stop-color:#E93E3A"/>
	</linearGradient>
	<path style="fill:url(#SVGID_7_);" d="M104.72,116.08c-3.208-2.96-8.152-2.96-11.36,0c-0.722,0.736-1.292,1.605-1.68,2.56
		c-0.411,0.989-0.628,2.049-0.64,3.12c-0.006,2.102,0.829,4.118,2.32,5.6c3.048,3.137,8.062,3.209,11.199,0.161
		c0.054-0.053,0.108-0.106,0.161-0.161c1.488-1.484,2.322-3.499,2.32-5.6c-0.012-1.071-0.229-2.131-0.64-3.12
		C106.012,117.685,105.442,116.816,104.72,116.08z"/>
	
		<linearGradient id="SVGID_8_" gradientUnits="userSpaceOnUse" x1="-48.485" y1="617.292" x2="-48.485" y2="555.275" gradientTransform="matrix(8 0 0 -8 455 4941)">
		<stop  offset="0" style="stop-color:#FFF33B"/>
		<stop  offset="0.04" style="stop-color:#FEE72E"/>
		<stop  offset="0.117" style="stop-color:#FED51B"/>
		<stop  offset="0.196" style="stop-color:#FDCA10"/>
		<stop  offset="0.281" style="stop-color:#FDC70C"/>
		<stop  offset="0.669" style="stop-color:#F3903F"/>
		<stop  offset="0.888" style="stop-color:#ED683C"/>
		<stop  offset="1" style="stop-color:#E93E3A"/>
	</linearGradient>
	<path style="fill:url(#SVGID_8_);" d="M67.12,185.04c2.104,0.019,4.126-0.819,5.6-2.32c1.527-1.497,2.391-3.542,2.4-5.68
		c-0.008-2.115-0.874-4.136-2.4-5.6c-0.711-0.771-1.586-1.372-2.56-1.76c-2.998-1.202-6.423-0.51-8.72,1.76
		c-1.504,1.472-2.342,3.495-2.32,5.6c-0.044,4.374,3.465,7.956,7.839,8C67.013,185.041,67.066,185.041,67.12,185.04z"/>
	
		<linearGradient id="SVGID_9_" gradientUnits="userSpaceOnUse" x1="-49.5251" y1="617.292" x2="-49.5251" y2="555.275" gradientTransform="matrix(8 0 0 -8 455 4941)">
		<stop  offset="0" style="stop-color:#FFF33B"/>
		<stop  offset="0.04" style="stop-color:#FEE72E"/>
		<stop  offset="0.117" style="stop-color:#FED51B"/>
		<stop  offset="0.196" style="stop-color:#FDCA10"/>
		<stop  offset="0.281" style="stop-color:#FDC70C"/>
		<stop  offset="0.669" style="stop-color:#F3903F"/>
		<stop  offset="0.888" style="stop-color:#ED683C"/>
		<stop  offset="1" style="stop-color:#E93E3A"/>
	</linearGradient>
	<path style="fill:url(#SVGID_9_);" d="M53.12,213.68c3.067,3.138,8.096,3.195,11.234,0.129c0.78-0.763,1.395-1.678,1.806-2.689
		c1.275-2.977,0.61-6.43-1.68-8.72c-3.208-2.96-8.152-2.96-11.36,0c-1.488,1.516-2.321,3.556-2.32,5.68
		c-0.028,1.049,0.192,2.091,0.64,3.04C51.825,212.076,52.396,212.946,53.12,213.68L53.12,213.68z"/>
	
		<linearGradient id="SVGID_10_" gradientUnits="userSpaceOnUse" x1="-49.5247" y1="617.292" x2="-49.5247" y2="555.275" gradientTransform="matrix(8 0 0 -8 455 4941)">
		<stop  offset="0" style="stop-color:#FFF33B"/>
		<stop  offset="0.04" style="stop-color:#FEE72E"/>
		<stop  offset="0.117" style="stop-color:#FED51B"/>
		<stop  offset="0.196" style="stop-color:#FDCA10"/>
		<stop  offset="0.281" style="stop-color:#FDC70C"/>
		<stop  offset="0.669" style="stop-color:#F3903F"/>
		<stop  offset="0.888" style="stop-color:#ED683C"/>
		<stop  offset="1" style="stop-color:#E93E3A"/>
	</linearGradient>
	<path style="fill:url(#SVGID_10_);" d="M64.48,277.6c3.102-3.12,3.102-8.16,0-11.28c-3.177-3.04-8.183-3.04-11.36,0
		c-1.488,1.516-2.321,3.556-2.32,5.68c-0.028,1.049,0.192,2.091,0.64,3.04c0.387,0.955,0.958,1.825,1.68,2.56
		c0.775,0.73,1.668,1.325,2.64,1.76c1.934,0.853,4.138,0.853,6.072,0C62.808,278.927,63.703,278.332,64.48,277.6z"/>
	
		<linearGradient id="SVGID_11_" gradientUnits="userSpaceOnUse" x1="-48.4851" y1="617.292" x2="-48.4851" y2="555.275" gradientTransform="matrix(8 0 0 -8 455 4941)">
		<stop  offset="0" style="stop-color:#FFF33B"/>
		<stop  offset="0.04" style="stop-color:#FEE72E"/>
		<stop  offset="0.117" style="stop-color:#FED51B"/>
		<stop  offset="0.196" style="stop-color:#FDCA10"/>
		<stop  offset="0.281" style="stop-color:#FDC70C"/>
		<stop  offset="0.669" style="stop-color:#F3903F"/>
		<stop  offset="0.888" style="stop-color:#ED683C"/>
		<stop  offset="1" style="stop-color:#E93E3A"/>
	</linearGradient>
	<path style="fill:url(#SVGID_11_);" d="M74.48,306c0.407-0.963,0.624-1.995,0.64-3.04c-0.015-1.074-0.232-2.135-0.64-3.128
		c-0.39-0.97-0.992-1.842-1.76-2.552c-3.177-2.961-8.103-2.961-11.28,0c-0.746,0.729-1.343,1.596-1.76,2.552
		c-0.386,0.997-0.576,2.059-0.56,3.128c-0.016,1.04,0.175,2.074,0.56,3.04c0.417,0.956,1.014,1.823,1.76,2.552
		c2.982,3.115,7.925,3.223,11.04,0.24c0.082-0.078,0.162-0.159,0.24-0.24C73.488,307.842,74.09,306.97,74.48,306z"/>
	
		<linearGradient id="SVGID_12_" gradientUnits="userSpaceOnUse" x1="-44.4953" y1="617.292" x2="-44.4953" y2="555.275" gradientTransform="matrix(8 0 0 -8 455 4941)">
		<stop  offset="0" style="stop-color:#FFF33B"/>
		<stop  offset="0.04" style="stop-color:#FEE72E"/>
		<stop  offset="0.117" style="stop-color:#FED51B"/>
		<stop  offset="0.196" style="stop-color:#FDCA10"/>
		<stop  offset="0.281" style="stop-color:#FDC70C"/>
		<stop  offset="0.669" style="stop-color:#F3903F"/>
		<stop  offset="0.888" style="stop-color:#ED683C"/>
		<stop  offset="1" style="stop-color:#E93E3A"/>
	</linearGradient>
	<path style="fill:url(#SVGID_12_);" d="M93.36,352.64c-3.117,3.131-3.106,8.196,0.024,11.314c2.286,2.276,5.714,2.956,8.696,1.726
		c4.088-1.676,6.043-6.349,4.366-10.437c-0.399-0.973-0.985-1.857-1.726-2.603C101.543,349.6,96.537,349.6,93.36,352.64z"/>
	
		<linearGradient id="SVGID_13_" gradientUnits="userSpaceOnUse" x1="-41.665" y1="617.292" x2="-41.665" y2="555.2754" gradientTransform="matrix(8 0 0 -8 455 4941)">
		<stop  offset="0" style="stop-color:#FFF33B"/>
		<stop  offset="0.04" style="stop-color:#FEE72E"/>
		<stop  offset="0.117" style="stop-color:#FED51B"/>
		<stop  offset="0.196" style="stop-color:#FDCA10"/>
		<stop  offset="0.281" style="stop-color:#FDC70C"/>
		<stop  offset="0.669" style="stop-color:#F3903F"/>
		<stop  offset="0.888" style="stop-color:#ED683C"/>
		<stop  offset="1" style="stop-color:#E93E3A"/>
	</linearGradient>
	<path style="fill:url(#SVGID_13_);" d="M126.16,374.32c-0.408-0.317-0.868-0.561-1.36-0.72c-0.476-0.246-0.99-0.408-1.52-0.48
		c-2.611-0.54-5.318,0.272-7.2,2.16c-1.519,1.502-2.381,3.544-2.4,5.68c0.013,1.045,0.23,2.078,0.64,3.04
		c0.863,1.92,2.4,3.457,4.32,4.32c0.987,0.419,2.048,0.637,3.12,0.64c2.118,0.009,4.146-0.86,5.6-2.4
		c0.772-0.71,1.373-1.585,1.76-2.56c0.383-0.967,0.573-2,0.56-3.04c0.018-2.127-0.818-4.173-2.32-5.68
		C127.015,374.896,126.61,374.572,126.16,374.32L126.16,374.32z"/>
	
		<linearGradient id="SVGID_14_" gradientUnits="userSpaceOnUse" x1="-34.7407" y1="617.292" x2="-34.7407" y2="555.275" gradientTransform="matrix(8 0 0 -8 455 4941)">
		<stop  offset="0" style="stop-color:#FFF33B"/>
		<stop  offset="0.04" style="stop-color:#FEE72E"/>
		<stop  offset="0.117" style="stop-color:#FED51B"/>
		<stop  offset="0.196" style="stop-color:#FDCA10"/>
		<stop  offset="0.281" style="stop-color:#FDC70C"/>
		<stop  offset="0.669" style="stop-color:#F3903F"/>
		<stop  offset="0.888" style="stop-color:#ED683C"/>
		<stop  offset="1" style="stop-color:#E93E3A"/>
	</linearGradient>
	<path style="fill:url(#SVGID_14_);" d="M182.72,407.28c-3.145-3.042-8.135-3.042-11.28,0c-0.771,0.708-1.372,1.58-1.76,2.552
		c-1.618,4.089,0.292,8.725,4.32,10.488c4.087,1.679,8.761-0.273,10.44-4.36c0.402-0.98,0.606-2.029,0.6-3.088
		c0.062-2.112-0.783-4.15-2.32-5.6V407.28z"/>
	
		<linearGradient id="SVGID_15_" gradientUnits="userSpaceOnUse" x1="-30.8702" y1="617.292" x2="-30.8702" y2="555.275" gradientTransform="matrix(8 0 0 -8 455 4941)">
		<stop  offset="0" style="stop-color:#FFF33B"/>
		<stop  offset="0.04" style="stop-color:#FEE72E"/>
		<stop  offset="0.117" style="stop-color:#FED51B"/>
		<stop  offset="0.196" style="stop-color:#FDCA10"/>
		<stop  offset="0.281" style="stop-color:#FDC70C"/>
		<stop  offset="0.669" style="stop-color:#F3903F"/>
		<stop  offset="0.888" style="stop-color:#ED683C"/>
		<stop  offset="1" style="stop-color:#E93E3A"/>
	</linearGradient>
	<path style="fill:url(#SVGID_15_);" d="M213.68,415.512c-3.177-2.961-8.103-2.961-11.28,0c-0.73,0.779-1.325,1.674-1.76,2.648
		c-1.229,2.993-0.534,6.431,1.76,8.712c0.751,0.725,1.616,1.323,2.56,1.768c0.993,0.39,2.054,0.578,3.12,0.552
		c2.102,0.009,4.12-0.827,5.6-2.32c0.756-0.751,1.355-1.646,1.76-2.632C216.665,421.242,215.971,417.801,213.68,415.512
		L213.68,415.512z"/>
	
		<linearGradient id="SVGID_16_" gradientUnits="userSpaceOnUse" x1="-22.8829" y1="617.292" x2="-22.8829" y2="555.275" gradientTransform="matrix(8 0 0 -8 455 4941)">
		<stop  offset="0" style="stop-color:#FFF33B"/>
		<stop  offset="0.04" style="stop-color:#FEE72E"/>
		<stop  offset="0.117" style="stop-color:#FED51B"/>
		<stop  offset="0.196" style="stop-color:#FDCA10"/>
		<stop  offset="0.281" style="stop-color:#FDC70C"/>
		<stop  offset="0.669" style="stop-color:#F3903F"/>
		<stop  offset="0.888" style="stop-color:#ED683C"/>
		<stop  offset="1" style="stop-color:#E93E3A"/>
	</linearGradient>
	<path style="fill:url(#SVGID_16_);" d="M277.6,415.512c-0.741-0.715-1.609-1.284-2.56-1.68c-2.979-1.253-6.42-0.59-8.72,1.68
		c-3.137,3.111-3.158,8.177-0.046,11.314c0.015,0.016,0.031,0.031,0.046,0.046c1.47,1.508,3.494,2.346,5.6,2.32
		c2.129,0.025,4.177-0.812,5.68-2.32c0.73-0.772,1.325-1.662,1.76-2.632c0.747-1.958,0.747-4.122,0-6.08
		C278.925,417.186,278.33,416.291,277.6,415.512z"/>
	
		<linearGradient id="SVGID_17_" gradientUnits="userSpaceOnUse" x1="-19.0101" y1="617.292" x2="-19.0101" y2="555.275" gradientTransform="matrix(8 0 0 -8 455 4941)">
		<stop  offset="0" style="stop-color:#FFF33B"/>
		<stop  offset="0.04" style="stop-color:#FEE72E"/>
		<stop  offset="0.117" style="stop-color:#FED51B"/>
		<stop  offset="0.196" style="stop-color:#FDCA10"/>
		<stop  offset="0.281" style="stop-color:#FDC70C"/>
		<stop  offset="0.669" style="stop-color:#F3903F"/>
		<stop  offset="0.888" style="stop-color:#ED683C"/>
		<stop  offset="1" style="stop-color:#E93E3A"/>
	</linearGradient>
	<path style="fill:url(#SVGID_17_);" d="M308.552,407.28c-3.111-3.137-8.177-3.158-11.314-0.047
		c-1.506,1.494-2.358,3.525-2.366,5.647c-0.077,4.342,3.381,7.925,7.724,8.002c0.121,0.002,0.243,0.001,0.364-0.002
		c2.103,0.012,4.122-0.824,5.6-2.32c2.356-2.25,3.062-5.73,1.768-8.72C309.939,408.862,309.332,407.987,308.552,407.28
		L308.552,407.28z"/>
	
		<linearGradient id="SVGID_18_" gradientUnits="userSpaceOnUse" x1="-12.0949" y1="617.292" x2="-12.0949" y2="555.275" gradientTransform="matrix(8 0 0 -8 455 4941)">
		<stop  offset="0" style="stop-color:#FFF33B"/>
		<stop  offset="0.04" style="stop-color:#FEE72E"/>
		<stop  offset="0.117" style="stop-color:#FED51B"/>
		<stop  offset="0.196" style="stop-color:#FDCA10"/>
		<stop  offset="0.281" style="stop-color:#FDC70C"/>
		<stop  offset="0.669" style="stop-color:#F3903F"/>
		<stop  offset="0.888" style="stop-color:#ED683C"/>
		<stop  offset="1" style="stop-color:#E93E3A"/>
	</linearGradient>
	<path style="fill:url(#SVGID_18_);" d="M352.64,375.28c-1.527,1.497-2.391,3.542-2.4,5.68c0.013,1.045,0.227,2.077,0.632,3.04
		c0.87,1.915,2.405,3.45,4.32,4.32c1.967,0.853,4.201,0.853,6.168,0c0.975-0.389,1.85-0.994,2.56-1.768
		c0.746-0.729,1.343-1.596,1.76-2.552c0.385-0.966,0.576-2,0.56-3.04c0.012-2.126-0.823-4.17-2.32-5.68
		C360.743,372.319,355.817,372.319,352.64,375.28z"/>
	
		<linearGradient id="SVGID_19_" gradientUnits="userSpaceOnUse" x1="-9.2554" y1="617.292" x2="-9.2554" y2="555.275" gradientTransform="matrix(8 0 0 -8 455 4941)">
		<stop  offset="0" style="stop-color:#FFF33B"/>
		<stop  offset="0.04" style="stop-color:#FEE72E"/>
		<stop  offset="0.117" style="stop-color:#FED51B"/>
		<stop  offset="0.196" style="stop-color:#FDCA10"/>
		<stop  offset="0.281" style="stop-color:#FDC70C"/>
		<stop  offset="0.669" style="stop-color:#F3903F"/>
		<stop  offset="0.888" style="stop-color:#ED683C"/>
		<stop  offset="1" style="stop-color:#E93E3A"/>
	</linearGradient>
	<path style="fill:url(#SVGID_19_);" d="M375.28,352.64c-0.721,0.751-1.318,1.613-1.768,2.552c-0.379,0.971-0.566,2.006-0.552,3.048
		c-0.089,2.141,0.758,4.214,2.32,5.68c0.738,0.776,1.64,1.377,2.64,1.76c0.958,0.42,1.993,0.638,3.04,0.64
		c1.045-0.013,2.078-0.23,3.04-0.64c0.987-0.407,1.884-1.005,2.64-1.76c1.474-1.525,2.304-3.559,2.32-5.68
		c-0.016-2.097-0.849-4.106-2.32-5.6C383.463,349.6,378.457,349.6,375.28,352.64L375.28,352.64z"/>
	
		<linearGradient id="SVGID_20_" gradientUnits="userSpaceOnUse" x1="-5.2654" y1="617.292" x2="-5.2654" y2="555.275" gradientTransform="matrix(8 0 0 -8 455 4941)">
		<stop  offset="0" style="stop-color:#FFF33B"/>
		<stop  offset="0.04" style="stop-color:#FEE72E"/>
		<stop  offset="0.117" style="stop-color:#FED51B"/>
		<stop  offset="0.196" style="stop-color:#FDCA10"/>
		<stop  offset="0.281" style="stop-color:#FDC70C"/>
		<stop  offset="0.669" style="stop-color:#F3903F"/>
		<stop  offset="0.888" style="stop-color:#ED683C"/>
		<stop  offset="1" style="stop-color:#E93E3A"/>
	</linearGradient>
	<path style="fill:url(#SVGID_20_);" d="M418.552,297.28c-2.984-3.113-7.927-3.217-11.04-0.232
		c-0.079,0.076-0.156,0.153-0.232,0.232c-0.771,0.71-1.375,1.581-1.768,2.552c-0.4,0.996-0.617,2.055-0.64,3.128
		c0.016,1.045,0.233,2.077,0.64,3.04c0.393,0.971,0.997,1.842,1.768,2.552c1.454,1.541,3.482,2.41,5.6,2.4
		c4.338,0.08,7.92-3.371,8-7.709c0.002-0.097,0.002-0.194,0-0.291c0.019-1.068-0.168-2.131-0.552-3.128
		C419.877,298.886,419.277,298.027,418.552,297.28z"/>
	
		<linearGradient id="SVGID_21_" gradientUnits="userSpaceOnUse" x1="-4.226" y1="617.292" x2="-4.226" y2="555.275" gradientTransform="matrix(8 0 0 -8 455 4941)">
		<stop  offset="0" style="stop-color:#FFF33B"/>
		<stop  offset="0.04" style="stop-color:#FEE72E"/>
		<stop  offset="0.117" style="stop-color:#FED51B"/>
		<stop  offset="0.196" style="stop-color:#FDCA10"/>
		<stop  offset="0.281" style="stop-color:#FDC70C"/>
		<stop  offset="0.669" style="stop-color:#F3903F"/>
		<stop  offset="0.888" style="stop-color:#ED683C"/>
		<stop  offset="1" style="stop-color:#E93E3A"/>
	</linearGradient>
	<path style="fill:url(#SVGID_21_);" d="M415.512,266.32c-1.485,1.518-2.318,3.556-2.32,5.68c-0.002,2.101,0.833,4.116,2.32,5.6
		c0.779,0.73,1.674,1.325,2.648,1.76c2.993,1.229,6.431,0.534,8.712-1.76c1.493-1.48,2.329-3.498,2.32-5.6
		c0.005-2.125-0.828-4.166-2.32-5.68C423.695,263.28,418.689,263.28,415.512,266.32L415.512,266.32z"/>
	
		<linearGradient id="SVGID_22_" gradientUnits="userSpaceOnUse" x1="-4.2227" y1="617.292" x2="-4.2227" y2="555.275" gradientTransform="matrix(8 0 0 -8 455 4941)">
		<stop  offset="0" style="stop-color:#FFF33B"/>
		<stop  offset="0.04" style="stop-color:#FEE72E"/>
		<stop  offset="0.117" style="stop-color:#FED51B"/>
		<stop  offset="0.196" style="stop-color:#FDCA10"/>
		<stop  offset="0.281" style="stop-color:#FDC70C"/>
		<stop  offset="0.669" style="stop-color:#F3903F"/>
		<stop  offset="0.888" style="stop-color:#ED683C"/>
		<stop  offset="1" style="stop-color:#E93E3A"/>
	</linearGradient>
	<path style="fill:url(#SVGID_22_);" d="M415.512,202.4c-3.098,3.206-3.01,8.316,0.196,11.414c1.474,1.424,3.435,2.234,5.484,2.266
		c2.138-0.009,4.183-0.873,5.68-2.4c0.727-0.731,1.298-1.602,1.68-2.56c0.415-0.96,0.632-1.994,0.64-3.04
		c0.005-2.125-0.828-4.166-2.32-5.68c-0.386-0.391-0.812-0.74-1.272-1.04c-0.408-0.24-0.88-0.488-1.36-0.72l-1.44-0.48
		C420.152,199.688,417.438,200.522,415.512,202.4L415.512,202.4z"/>
	
		<linearGradient id="SVGID_23_" gradientUnits="userSpaceOnUse" x1="-5.266" y1="617.292" x2="-5.266" y2="555.275" gradientTransform="matrix(8 0 0 -8 455 4941)">
		<stop  offset="0" style="stop-color:#FFF33B"/>
		<stop  offset="0.04" style="stop-color:#FEE72E"/>
		<stop  offset="0.117" style="stop-color:#FED51B"/>
		<stop  offset="0.196" style="stop-color:#FDCA10"/>
		<stop  offset="0.281" style="stop-color:#FDC70C"/>
		<stop  offset="0.669" style="stop-color:#F3903F"/>
		<stop  offset="0.888" style="stop-color:#ED683C"/>
		<stop  offset="1" style="stop-color:#E93E3A"/>
	</linearGradient>
	<path style="fill:url(#SVGID_23_);" d="M404.872,177.04c0.009,2.138,0.873,4.183,2.4,5.68c1.464,1.516,3.492,2.357,5.6,2.32
		c4.374,0.044,7.956-3.465,8-7.839c0.001-0.054,0.001-0.107,0-0.161c0.026-2.106-0.812-4.13-2.32-5.6
		c-2.301-2.263-5.721-2.953-8.72-1.76c-0.972,0.388-1.844,0.989-2.552,1.76C405.752,172.903,404.883,174.924,404.872,177.04z"/>
	
		<linearGradient id="SVGID_24_" gradientUnits="userSpaceOnUse" x1="-9.255" y1="617.292" x2="-9.255" y2="555.275" gradientTransform="matrix(8 0 0 -8 455 4941)">
		<stop  offset="0" style="stop-color:#FFF33B"/>
		<stop  offset="0.04" style="stop-color:#FEE72E"/>
		<stop  offset="0.117" style="stop-color:#FED51B"/>
		<stop  offset="0.196" style="stop-color:#FDCA10"/>
		<stop  offset="0.281" style="stop-color:#FDC70C"/>
		<stop  offset="0.669" style="stop-color:#F3903F"/>
		<stop  offset="0.888" style="stop-color:#ED683C"/>
		<stop  offset="1" style="stop-color:#E93E3A"/>
	</linearGradient>
	<path style="fill:url(#SVGID_24_);" d="M380.96,129.76c2.118,0.006,4.144-0.862,5.6-2.4c1.512-1.474,2.375-3.489,2.4-5.6
		c-0.012-1.071-0.229-2.131-0.64-3.12c-0.387-0.976-0.992-1.852-1.768-2.56c-3.174-2.96-8.098-2.96-11.272,0
		c-0.724,0.734-1.295,1.604-1.68,2.56c-0.415,0.988-0.632,2.048-0.64,3.12c-0.003,2.101,0.832,4.116,2.32,5.6
		C376.777,128.887,378.822,129.751,380.96,129.76L380.96,129.76z"/>
	
		<linearGradient id="SVGID_25_" gradientUnits="userSpaceOnUse" x1="-12.0898" y1="617.292" x2="-12.0898" y2="555.275" gradientTransform="matrix(8 0 0 -8 455 4941)">
		<stop  offset="0" style="stop-color:#FFF33B"/>
		<stop  offset="0.04" style="stop-color:#FEE72E"/>
		<stop  offset="0.117" style="stop-color:#FED51B"/>
		<stop  offset="0.196" style="stop-color:#FDCA10"/>
		<stop  offset="0.281" style="stop-color:#FDC70C"/>
		<stop  offset="0.669" style="stop-color:#F3903F"/>
		<stop  offset="0.888" style="stop-color:#ED683C"/>
		<stop  offset="1" style="stop-color:#E93E3A"/>
	</linearGradient>
	<path style="fill:url(#SVGID_25_);" d="M363.92,93.36c-3.141-3.05-8.139-3.05-11.28,0c-3.137,3.205-3.081,8.346,0.124,11.483
		c0.703,0.688,1.526,1.243,2.428,1.637c0.98,0.347,2.009,0.536,3.048,0.56c2.128,0.021,4.175-0.815,5.68-2.32
		c0.73-0.775,1.325-1.668,1.76-2.64c0.747-1.958,0.747-4.122,0-6.08C365.245,95.028,364.65,94.135,363.92,93.36z"/>
	
		<linearGradient id="SVGID_26_" gradientUnits="userSpaceOnUse" x1="-19.0104" y1="617.292" x2="-19.0104" y2="555.275" gradientTransform="matrix(8 0 0 -8 455 4941)">
		<stop  offset="0" style="stop-color:#FFF33B"/>
		<stop  offset="0.04" style="stop-color:#FEE72E"/>
		<stop  offset="0.117" style="stop-color:#FED51B"/>
		<stop  offset="0.196" style="stop-color:#FDCA10"/>
		<stop  offset="0.281" style="stop-color:#FDC70C"/>
		<stop  offset="0.669" style="stop-color:#F3903F"/>
		<stop  offset="0.888" style="stop-color:#ED683C"/>
		<stop  offset="1" style="stop-color:#E93E3A"/>
	</linearGradient>
	<path style="fill:url(#SVGID_26_);" d="M302.96,75.04c1.04,0.013,2.073-0.177,3.04-0.56c0.97-0.39,1.842-0.992,2.552-1.76
		c1.519-1.462,2.36-3.492,2.32-5.6c0.012-1.065-0.176-2.123-0.552-3.12c-0.387-0.976-0.992-1.852-1.768-2.56
		c-0.322-0.404-0.729-0.732-1.192-0.96c-0.424-0.313-0.88-0.581-1.36-0.8c-3.007-1.096-6.374-0.416-8.72,1.76
		c-0.748,0.732-1.349,1.601-1.768,2.56c-0.373,0.998-0.56,2.055-0.552,3.12c-0.019,2.104,0.819,4.126,2.32,5.6
		C298.785,74.225,300.832,75.061,302.96,75.04L302.96,75.04z"/>
</g>
<linearGradient id="SVGID_27_" gradientUnits="userSpaceOnUse" x1="-22.8849" y1="617.292" x2="-22.8849" y2="555.275" gradientTransform="matrix(8 0 0 -8 455 4941)">
	<stop  offset="0" style="stop-color:#FFF33B"/>
	<stop  offset="0.04" style="stop-color:#FEE72E"/>
	<stop  offset="0.117" style="stop-color:#FED51B"/>
	<stop  offset="0.196" style="stop-color:#FDCA10"/>
	<stop  offset="0.281" style="stop-color:#FDC70C"/>
	<stop  offset="0.669" style="stop-color:#F3903F"/>
	<stop  offset="0.888" style="stop-color:#ED683C"/>
	<stop  offset="1" style="stop-color:#E93E3A"/>
</linearGradient>
<path style="fill:url(#SVGID_27_);" d="M268.872,66.16c2.984,1.23,6.414,0.57,8.728-1.68c2.24-2.313,2.928-5.719,1.76-8.72
	c-0.394-0.994-0.993-1.894-1.76-2.64c-1.891-1.873-4.59-2.683-7.2-2.16c-0.533,0.071-1.05,0.233-1.528,0.48
	c-0.492,0.159-0.952,0.403-1.36,0.72c-0.444,0.257-0.847,0.58-1.192,0.96c-0.795,0.724-1.401,1.63-1.768,2.64
	c-0.405,0.963-0.619,1.995-0.632,3.04c0.009,2.138,0.873,4.183,2.4,5.68C267.056,65.197,267.922,65.767,268.872,66.16z"/>
<g>
	
		<linearGradient id="SVGID_28_" gradientUnits="userSpaceOnUse" x1="-38.1217" y1="617.292" x2="-38.1217" y2="555.275" gradientTransform="matrix(8 0 0 -8 455 4941)">
		<stop  offset="0" style="stop-color:#FFF33B"/>
		<stop  offset="0.04" style="stop-color:#FEE72E"/>
		<stop  offset="0.117" style="stop-color:#FED51B"/>
		<stop  offset="0.196" style="stop-color:#FDCA10"/>
		<stop  offset="0.281" style="stop-color:#FDC70C"/>
		<stop  offset="0.669" style="stop-color:#F3903F"/>
		<stop  offset="0.888" style="stop-color:#ED683C"/>
		<stop  offset="1" style="stop-color:#E93E3A"/>
	</linearGradient>
	<path style="fill:url(#SVGID_28_);" d="M145.072,91.576c2.184,3.841,7.068,5.184,10.909,3c3.841-2.184,5.184-7.068,3-10.909
		c-0.017-0.031-0.035-0.061-0.053-0.092l-4-6.928c-2.234-3.812-7.136-5.09-10.947-2.856c-3.776,2.214-5.072,7.051-2.909,10.856
		L145.072,91.576z"/>
	
		<linearGradient id="SVGID_29_" gradientUnits="userSpaceOnUse" x1="-46.361" y1="617.292" x2="-46.361" y2="555.275" gradientTransform="matrix(8 0 0 -8 455 4941)">
		<stop  offset="0" style="stop-color:#FFF33B"/>
		<stop  offset="0.04" style="stop-color:#FEE72E"/>
		<stop  offset="0.117" style="stop-color:#FED51B"/>
		<stop  offset="0.196" style="stop-color:#FDCA10"/>
		<stop  offset="0.281" style="stop-color:#FDC70C"/>
		<stop  offset="0.669" style="stop-color:#F3903F"/>
		<stop  offset="0.888" style="stop-color:#ED683C"/>
		<stop  offset="1" style="stop-color:#E93E3A"/>
	</linearGradient>
	<path style="fill:url(#SVGID_29_);" d="M76.648,154.928l6.928,4c3.841,2.184,8.725,0.841,10.909-3
		c2.163-3.805,0.867-8.642-2.909-10.856l-6.928-4c-3.841-2.184-8.725-0.841-10.909,3C71.576,147.877,72.872,152.714,76.648,154.928z
		"/>
	
		<linearGradient id="SVGID_30_" gradientUnits="userSpaceOnUse" x1="-47.875" y1="617.292" x2="-47.875" y2="555.275" gradientTransform="matrix(8 0 0 -8 455 4941)">
		<stop  offset="0" style="stop-color:#FFF33B"/>
		<stop  offset="0.04" style="stop-color:#FEE72E"/>
		<stop  offset="0.117" style="stop-color:#FED51B"/>
		<stop  offset="0.196" style="stop-color:#FDCA10"/>
		<stop  offset="0.281" style="stop-color:#FDC70C"/>
		<stop  offset="0.669" style="stop-color:#F3903F"/>
		<stop  offset="0.888" style="stop-color:#ED683C"/>
		<stop  offset="1" style="stop-color:#E93E3A"/>
	</linearGradient>
	<path style="fill:url(#SVGID_30_);" d="M88,248c4.418,0,8-3.582,8-8s-3.582-8-8-8H56c-4.418,0-8,3.582-8,8s3.582,8,8,8H88z"/>
	
		<linearGradient id="SVGID_31_" gradientUnits="userSpaceOnUse" x1="-46.3639" y1="617.292" x2="-46.3639" y2="555.275" gradientTransform="matrix(8 0 0 -8 455 4941)">
		<stop  offset="0" style="stop-color:#FFF33B"/>
		<stop  offset="0.04" style="stop-color:#FEE72E"/>
		<stop  offset="0.117" style="stop-color:#FED51B"/>
		<stop  offset="0.196" style="stop-color:#FDCA10"/>
		<stop  offset="0.281" style="stop-color:#FDC70C"/>
		<stop  offset="0.669" style="stop-color:#F3903F"/>
		<stop  offset="0.888" style="stop-color:#ED683C"/>
		<stop  offset="1" style="stop-color:#E93E3A"/>
	</linearGradient>
	<path style="fill:url(#SVGID_31_);" d="M94.504,324c-2.209-3.826-7.102-5.137-10.928-2.928l-6.928,4
		c-3.841,2.183-5.185,7.067-3.002,10.908c2.183,3.841,7.067,5.185,10.908,3.002c0.031-0.018,0.062-0.036,0.093-0.054l6.928-4
		C95.402,332.719,96.713,327.826,94.504,324L94.504,324z"/>
	
		<linearGradient id="SVGID_32_" gradientUnits="userSpaceOnUse" x1="-38.1267" y1="617.292" x2="-38.1267" y2="555.275" gradientTransform="matrix(8 0 0 -8 455 4941)">
		<stop  offset="0" style="stop-color:#FFF33B"/>
		<stop  offset="0.04" style="stop-color:#FEE72E"/>
		<stop  offset="0.117" style="stop-color:#FED51B"/>
		<stop  offset="0.196" style="stop-color:#FDCA10"/>
		<stop  offset="0.281" style="stop-color:#FDC70C"/>
		<stop  offset="0.669" style="stop-color:#F3903F"/>
		<stop  offset="0.888" style="stop-color:#ED683C"/>
		<stop  offset="1" style="stop-color:#E93E3A"/>
	</linearGradient>
	<path style="fill:url(#SVGID_32_);" d="M156,385.496c-3.826-2.209-8.719-0.898-10.928,2.928l-4,6.928
		c-2.234,3.812-0.956,8.713,2.856,10.947c3.812,2.234,8.713,0.956,10.947-2.856c0.018-0.03,0.035-0.061,0.053-0.092l4-6.928
		C161.137,392.598,159.826,387.705,156,385.496L156,385.496z"/>
</g>
<linearGradient id="SVGID_33_" gradientUnits="userSpaceOnUse" x1="-26.875" y1="617.292" x2="-26.875" y2="555.275" gradientTransform="matrix(8 0 0 -8 455 4941)">
	<stop  offset="0" style="stop-color:#FFF33B"/>
	<stop  offset="0.04" style="stop-color:#FEE72E"/>
	<stop  offset="0.117" style="stop-color:#FED51B"/>
	<stop  offset="0.196" style="stop-color:#FDCA10"/>
	<stop  offset="0.281" style="stop-color:#FDC70C"/>
	<stop  offset="0.669" style="stop-color:#F3903F"/>
	<stop  offset="0.888" style="stop-color:#ED683C"/>
	<stop  offset="1" style="stop-color:#E93E3A"/>
</linearGradient>
<path style="fill:url(#SVGID_33_);" d="M240,384c-4.418,0-8,3.582-8,8v32c0,4.418,3.582,8,8,8s8-3.582,8-8v-32
	C248,387.582,244.418,384,240,384z"/>
<g>
	
		<linearGradient id="SVGID_34_" gradientUnits="userSpaceOnUse" x1="-15.6284" y1="617.292" x2="-15.6284" y2="555.275" gradientTransform="matrix(8 0 0 -8 455 4941)">
		<stop  offset="0" style="stop-color:#FFF33B"/>
		<stop  offset="0.04" style="stop-color:#FEE72E"/>
		<stop  offset="0.117" style="stop-color:#FED51B"/>
		<stop  offset="0.196" style="stop-color:#FDCA10"/>
		<stop  offset="0.281" style="stop-color:#FDC70C"/>
		<stop  offset="0.669" style="stop-color:#F3903F"/>
		<stop  offset="0.888" style="stop-color:#ED683C"/>
		<stop  offset="1" style="stop-color:#E93E3A"/>
	</linearGradient>
	<path style="fill:url(#SVGID_34_);" d="M334.928,388.424c-2.183-3.841-7.067-5.185-10.908-3.002
		c-3.841,2.183-5.185,7.067-3.002,10.908c0.018,0.031,0.036,0.062,0.054,0.093l4,6.928c2.235,3.811,7.136,5.089,10.948,2.854
		c3.775-2.214,5.071-7.05,2.908-10.854L334.928,388.424z"/>
	
		<linearGradient id="SVGID_35_" gradientUnits="userSpaceOnUse" x1="-7.3948" y1="617.292" x2="-7.3948" y2="555.275" gradientTransform="matrix(8 0 0 -8 455 4941)">
		<stop  offset="0" style="stop-color:#FFF33B"/>
		<stop  offset="0.04" style="stop-color:#FEE72E"/>
		<stop  offset="0.117" style="stop-color:#FED51B"/>
		<stop  offset="0.196" style="stop-color:#FDCA10"/>
		<stop  offset="0.281" style="stop-color:#FDC70C"/>
		<stop  offset="0.669" style="stop-color:#F3903F"/>
		<stop  offset="0.888" style="stop-color:#ED683C"/>
		<stop  offset="1" style="stop-color:#E93E3A"/>
	</linearGradient>
	<path style="fill:url(#SVGID_35_);" d="M403.352,325.072l-6.928-4c-3.811-2.235-8.713-0.957-10.948,2.854
		c-2.235,3.811-0.957,8.713,2.854,10.948c0.031,0.018,0.062,0.036,0.093,0.054l6.928,4c3.841,2.183,8.725,0.84,10.908-3.002
		C408.423,332.122,407.127,327.286,403.352,325.072z"/>
	
		<linearGradient id="SVGID_36_" gradientUnits="userSpaceOnUse" x1="-5.875" y1="617.292" x2="-5.875" y2="555.275" gradientTransform="matrix(8 0 0 -8 455 4941)">
		<stop  offset="0" style="stop-color:#FFF33B"/>
		<stop  offset="0.04" style="stop-color:#FEE72E"/>
		<stop  offset="0.117" style="stop-color:#FED51B"/>
		<stop  offset="0.196" style="stop-color:#FDCA10"/>
		<stop  offset="0.281" style="stop-color:#FDC70C"/>
		<stop  offset="0.669" style="stop-color:#F3903F"/>
		<stop  offset="0.888" style="stop-color:#ED683C"/>
		<stop  offset="1" style="stop-color:#E93E3A"/>
	</linearGradient>
	<path style="fill:url(#SVGID_36_);" d="M424,232h-32c-4.418,0-8,3.582-8,8s3.582,8,8,8h32c4.418,0,8-3.582,8-8S428.418,232,424,232
		z"/>
	
		<linearGradient id="SVGID_37_" gradientUnits="userSpaceOnUse" x1="-7.3918" y1="617.292" x2="-7.3918" y2="555.275" gradientTransform="matrix(8 0 0 -8 455 4941)">
		<stop  offset="0" style="stop-color:#FFF33B"/>
		<stop  offset="0.04" style="stop-color:#FEE72E"/>
		<stop  offset="0.117" style="stop-color:#FED51B"/>
		<stop  offset="0.196" style="stop-color:#FDCA10"/>
		<stop  offset="0.281" style="stop-color:#FDC70C"/>
		<stop  offset="0.669" style="stop-color:#F3903F"/>
		<stop  offset="0.888" style="stop-color:#ED683C"/>
		<stop  offset="1" style="stop-color:#E93E3A"/>
	</linearGradient>
	<path style="fill:url(#SVGID_37_);" d="M385.496,156c2.209,3.826,7.102,5.137,10.928,2.928l6.928-4
		c3.812-2.234,5.09-7.136,2.856-10.947c-2.214-3.776-7.051-5.072-10.856-2.909l-6.928,4
		C384.598,147.281,383.287,152.174,385.496,156L385.496,156z"/>
	
		<linearGradient id="SVGID_38_" gradientUnits="userSpaceOnUse" x1="-15.6267" y1="617.292" x2="-15.6267" y2="555.275" gradientTransform="matrix(8 0 0 -8 455 4941)">
		<stop  offset="0" style="stop-color:#FFF33B"/>
		<stop  offset="0.04" style="stop-color:#FEE72E"/>
		<stop  offset="0.117" style="stop-color:#FED51B"/>
		<stop  offset="0.196" style="stop-color:#FDCA10"/>
		<stop  offset="0.281" style="stop-color:#FDC70C"/>
		<stop  offset="0.669" style="stop-color:#F3903F"/>
		<stop  offset="0.888" style="stop-color:#ED683C"/>
		<stop  offset="1" style="stop-color:#E93E3A"/>
	</linearGradient>
	<path style="fill:url(#SVGID_38_);" d="M324,94.504c3.826,2.209,8.719,0.898,10.928-2.928l4-6.928
		c2.183-3.841,0.84-8.725-3.002-10.908c-3.805-2.163-8.641-0.867-10.854,2.908l-4,6.928C318.863,87.402,320.174,92.295,324,94.504
		L324,94.504z"/>
	
		<linearGradient id="SVGID_39_" gradientUnits="userSpaceOnUse" x1="-24.955" y1="617.292" x2="-24.955" y2="555.275" gradientTransform="matrix(8 0 0 -8 455 4941)">
		<stop  offset="0" style="stop-color:#FFF33B"/>
		<stop  offset="0.04" style="stop-color:#FEE72E"/>
		<stop  offset="0.117" style="stop-color:#FED51B"/>
		<stop  offset="0.196" style="stop-color:#FDCA10"/>
		<stop  offset="0.281" style="stop-color:#FDC70C"/>
		<stop  offset="0.669" style="stop-color:#F3903F"/>
		<stop  offset="0.888" style="stop-color:#ED683C"/>
		<stop  offset="1" style="stop-color:#E93E3A"/>
	</linearGradient>
	<path style="fill:url(#SVGID_39_);" d="M348.848,131.152c-3.124-3.123-8.188-3.123-11.312,0L250.272,218.4
		c-6.502-3.079-14.042-3.079-20.544,0l-56.64-56.64c-3.178-3.069-8.243-2.981-11.312,0.197c-2.994,3.1-2.994,8.015,0,11.115
		l56.64,56.64c-5.696,11.929-0.643,26.218,11.286,31.914c11.929,5.696,26.218,0.643,31.914-11.286
		c3.115-6.523,3.115-14.104,0-20.627l87.232-87.248C351.971,139.34,351.971,134.276,348.848,131.152L348.848,131.152z
		 M245.648,245.656c-3.124,3.125-8.189,3.125-11.314,0.002s-3.125-8.189-0.002-11.314c3.124-3.125,8.189-3.125,11.314-0.002
		c0.001,0.001,0.001,0.001,0.002,0.002c3.125,3.122,3.129,8.186,0.008,11.312H245.648z"/>
</g>
<g>
</g>
<g>
</g>
<g>
</g>
<g>
</g>
<g>
</g>
<g>
</g>
<g>
</g>
<g>
</g>
<g>
</g>
<g>
</g>
<g>
</g>
<g>
</g>
<g>
</g>
<g>
</g>
<g>
</g>
</svg>
